<svg id="svg" version="1.1" xmlns="http://www.w3.org/2000/svg" xmlns:xlink="http://www.w3.org/1999/xlink" width="400" height="111.55067155067155" viewBox="0, 0, 400,111.55067155067155"><g id="svgg"><path id="path0" d="M21.000 0.112 C 14.345 1.224,9.246 4.220,4.843 9.606 C 3.019 11.838,1.205 15.963,0.310 19.917 C -0.098 21.716,-0.018 89.953,0.394 91.833 C 2.582 101.827,9.741 108.925,19.833 111.110 C 22.039 111.587,89.422 111.586,91.750 111.109 C 93.405 110.770,94.640 110.420,95.442 110.066 C 95.731 109.938,96.031 109.831,96.109 109.828 C 96.186 109.825,96.550 109.677,96.917 109.500 C 97.283 109.323,97.637 109.175,97.703 109.172 C 97.769 109.169,98.482 108.779,99.287 108.305 C 105.318 104.752,109.041 99.734,111.012 92.500 C 111.641 90.194,111.667 88.750,111.667 55.754 C 111.667 28.660,111.629 23.428,111.422 21.666 C 111.131 19.196,110.531 16.750,109.845 15.250 C 109.762 15.067,109.507 14.492,109.279 13.973 C 106.683 8.055,100.500 2.722,94.167 0.936 C 90.868 0.006,94.299 0.085,56.250 0.063 C 37.092 0.052,21.229 0.074,21.000 0.112 M245.432 18.683 C 240.152 19.240,236.070 21.305,233.284 24.828 C 230.573 28.257,229.837 31.018,229.835 37.778 L 229.833 42.139 226.042 42.204 C 220.201 42.304,218.428 43.479,218.419 47.250 C 218.411 51.055,220.141 52.214,225.958 52.299 L 229.833 52.355 229.833 72.812 C 229.833 96.397,229.705 94.502,231.423 96.220 C 234.080 98.877,238.393 98.119,240.267 94.667 C 240.572 94.104,240.585 93.353,240.628 73.208 L 240.672 52.333 246.222 52.333 C 252.283 52.333,252.946 52.252,254.195 51.356 C 256.676 49.578,256.783 45.327,254.396 43.360 C 253.122 42.310,252.846 42.270,246.458 42.205 L 240.667 42.147 240.667 38.430 C 240.667 32.563,241.553 30.199,244.242 28.893 C 245.655 28.207,249.696 28.062,250.819 28.658 C 251.313 28.920,253.666 29.213,254.490 29.116 C 258.106 28.687,259.638 23.374,256.863 20.884 C 254.664 18.911,250.634 18.135,245.432 18.683 M35.167 20.785 C 42.759 22.563,46.054 32.033,41.249 38.268 C 35.276 46.018,22.827 42.691,21.499 32.989 C 21.289 31.458,21.429 28.983,21.691 29.583 C 21.791 29.812,21.807 29.715,21.741 29.275 C 21.672 28.809,21.699 28.667,21.841 28.754 C 21.977 28.839,22.002 28.769,21.923 28.521 C 21.854 28.302,21.883 28.167,22.000 28.167 C 22.117 28.167,22.146 28.032,22.077 27.812 C 22.007 27.593,22.028 27.498,22.131 27.562 C 22.223 27.618,22.343 27.549,22.397 27.407 C 22.453 27.261,22.426 27.193,22.333 27.250 C 22.241 27.307,22.213 27.239,22.270 27.092 C 22.324 26.950,22.440 26.833,22.528 26.833 C 22.615 26.833,22.644 26.765,22.592 26.681 C 22.540 26.597,22.568 26.503,22.653 26.473 C 22.738 26.442,22.833 26.313,22.862 26.186 C 22.892 26.059,23.086 25.766,23.293 25.535 C 23.500 25.304,23.636 25.080,23.594 25.039 C 23.553 24.997,23.735 24.780,24.000 24.557 C 24.265 24.334,24.529 24.005,24.586 23.826 C 24.643 23.647,24.790 23.500,24.913 23.500 C 25.036 23.500,25.323 23.279,25.550 23.009 C 25.777 22.739,26.007 22.563,26.061 22.616 C 26.115 22.670,26.206 22.592,26.264 22.441 C 26.321 22.291,26.429 22.206,26.504 22.252 C 26.579 22.299,26.753 22.223,26.891 22.085 C 27.030 21.947,27.223 21.833,27.321 21.833 C 27.420 21.833,27.500 21.761,27.500 21.672 C 27.500 21.583,27.625 21.558,27.777 21.617 C 27.951 21.684,28.014 21.657,27.945 21.546 C 27.805 21.319,28.248 21.144,28.611 21.284 C 28.808 21.359,28.850 21.328,28.756 21.177 C 28.658 21.018,28.719 20.994,29.000 21.083 C 29.246 21.162,29.338 21.142,29.266 21.026 C 29.201 20.920,29.408 20.803,29.787 20.732 C 31.950 20.326,33.264 20.339,35.167 20.785 M81.555 20.587 C 89.565 21.472,93.719 31.467,88.829 38.088 C 83.247 45.647,70.996 43.059,69.083 33.917 C 68.718 32.173,68.810 28.366,69.196 29.257 C 69.289 29.472,69.306 29.356,69.246 28.917 C 69.175 28.402,69.197 28.307,69.341 28.500 C 69.487 28.697,69.505 28.650,69.423 28.278 C 69.357 27.974,69.381 27.843,69.491 27.911 C 69.593 27.974,69.623 27.912,69.564 27.759 C 69.507 27.612,69.552 27.500,69.667 27.500 C 69.781 27.500,69.826 27.388,69.770 27.241 C 69.713 27.093,69.741 27.026,69.835 27.085 C 69.979 27.173,70.079 26.833,70.020 26.458 C 70.009 26.390,70.087 26.333,70.194 26.333 C 70.301 26.333,70.340 26.284,70.280 26.225 C 70.221 26.165,70.279 26.034,70.410 25.933 C 70.541 25.832,70.671 25.637,70.699 25.500 C 70.727 25.363,70.883 25.151,71.044 25.030 C 71.206 24.909,71.319 24.759,71.294 24.697 C 71.270 24.634,71.691 24.143,72.230 23.606 C 72.769 23.068,73.160 22.709,73.099 22.808 C 73.037 22.908,73.290 22.790,73.660 22.548 C 74.030 22.306,74.333 22.041,74.333 21.961 C 74.333 21.880,74.402 21.856,74.487 21.908 C 74.571 21.960,74.749 21.893,74.883 21.759 C 75.017 21.625,75.173 21.562,75.230 21.619 C 75.287 21.676,75.333 21.630,75.333 21.518 C 75.333 21.406,75.402 21.356,75.485 21.407 C 75.716 21.550,76.179 21.322,76.058 21.125 C 75.987 21.011,76.107 20.991,76.406 21.066 C 76.691 21.137,76.823 21.118,76.759 21.015 C 76.614 20.780,79.295 20.317,80.167 20.427 C 80.396 20.456,81.021 20.528,81.555 20.587 M269.025 22.588 C 266.339 23.242,265.671 24.217,265.545 27.667 C 265.428 30.850,265.940 32.384,267.375 33.150 C 269.852 34.472,274.982 34.184,276.529 32.637 C 277.910 31.257,278.118 25.903,276.859 24.139 C 275.768 22.610,271.998 21.863,269.025 22.588 M69.052 31.083 C 69.053 31.633,69.084 31.838,69.121 31.539 C 69.158 31.239,69.157 30.789,69.119 30.539 C 69.081 30.288,69.051 30.533,69.052 31.083 M72.000 38.417 C 72.311 38.737,72.603 39.000,72.649 39.000 C 72.695 39.000,72.478 38.737,72.167 38.417 C 71.856 38.096,71.564 37.833,71.518 37.833 C 71.472 37.833,71.689 38.096,72.000 38.417 M370.083 40.202 C 367.854 40.618,365.147 41.343,364.083 41.808 C 363.227 42.182,360.741 43.415,360.667 43.502 C 360.621 43.555,360.213 43.814,359.760 44.076 C 357.951 45.121,355.259 47.499,353.617 49.500 C 353.279 49.913,352.848 50.434,352.660 50.659 C 352.472 50.884,352.157 51.334,351.960 51.659 C 351.762 51.984,351.555 52.288,351.500 52.333 C 351.359 52.449,350.130 54.622,349.803 55.333 C 349.656 55.654,349.385 56.254,349.202 56.667 C 346.768 62.146,346.075 71.754,347.670 77.917 C 348.322 80.436,348.504 80.993,349.152 82.467 C 355.709 97.367,374.141 103.313,389.417 95.454 C 390.290 95.005,393.102 93.244,393.333 93.001 C 393.379 92.953,393.986 92.410,394.682 91.794 C 397.892 88.951,397.847 85.026,394.583 83.274 C 393.216 82.541,390.058 82.919,389.039 83.938 C 388.621 84.356,385.550 86.500,385.369 86.500 C 385.273 86.500,385.169 86.558,385.139 86.630 C 385.066 86.799,383.112 87.667,382.804 87.667 C 382.674 87.667,382.495 87.733,382.408 87.815 C 380.866 89.259,372.030 88.998,368.333 87.399 C 362.584 84.913,357.500 78.122,357.500 72.929 L 357.500 72.508 376.875 72.462 L 396.250 72.417 396.966 72.034 C 400.504 70.145,400.920 66.717,398.598 58.583 C 398.572 58.492,398.490 58.267,398.415 58.083 C 398.341 57.900,398.138 57.375,397.963 56.917 C 395.762 51.148,390.410 45.393,384.664 42.619 C 380.095 40.413,374.193 39.434,370.083 40.202 M269.543 41.204 C 268.528 41.574,266.668 43.101,266.666 43.567 C 266.665 43.668,266.534 43.975,266.374 44.250 C 266.101 44.719,266.083 46.252,266.083 69.250 L 266.083 93.750 266.567 94.736 C 268.533 98.745,274.479 98.824,276.340 94.865 C 276.987 93.490,277.010 92.494,276.963 68.489 L 276.917 45.083 276.538 44.147 C 275.484 41.541,272.297 40.200,269.543 41.204 M290.214 41.241 C 286.853 42.806,286.322 45.710,288.558 50.304 C 288.880 50.965,289.230 51.770,289.336 52.093 C 289.443 52.415,289.747 53.108,290.013 53.631 C 290.278 54.155,290.497 54.639,290.498 54.707 C 290.499 54.775,290.844 55.563,291.265 56.457 C 291.686 57.352,292.217 58.533,292.444 59.083 C 292.844 60.047,293.017 60.443,293.833 62.250 C 294.040 62.708,294.506 63.758,294.869 64.583 C 295.232 65.408,295.700 66.458,295.908 66.917 C 296.117 67.375,296.532 68.313,296.830 69.000 C 298.029 71.765,299.215 74.462,299.578 75.250 C 300.379 76.987,300.667 77.652,300.667 77.762 C 300.667 77.825,300.884 78.335,301.150 78.896 C 301.636 79.920,302.022 80.771,302.634 82.167 C 302.815 82.579,303.505 84.154,304.168 85.667 C 304.831 87.179,305.543 88.792,305.749 89.250 C 305.956 89.708,306.597 91.133,307.174 92.417 C 309.367 97.289,311.392 98.607,315.002 97.511 C 316.592 97.028,318.833 94.563,318.833 93.298 C 318.833 93.244,319.133 92.556,319.500 91.770 C 319.867 90.984,320.167 90.304,320.167 90.260 C 320.167 90.216,320.419 89.633,320.728 88.965 C 321.036 88.297,321.458 87.375,321.665 86.917 C 321.872 86.458,322.211 85.708,322.419 85.250 C 323.327 83.243,323.500 82.847,323.500 82.774 C 323.500 82.731,323.769 82.108,324.098 81.390 C 325.158 79.075,325.369 78.605,325.916 77.333 C 326.211 76.646,326.693 75.558,326.985 74.917 C 327.278 74.275,327.583 73.600,327.663 73.417 C 327.744 73.233,328.294 71.996,328.888 70.667 C 329.481 69.337,330.167 67.800,330.412 67.250 C 330.978 65.981,331.211 65.453,331.658 64.417 C 331.856 63.958,332.086 63.433,332.169 63.250 C 332.252 63.067,332.585 62.330,332.910 61.613 C 333.234 60.896,333.500 60.281,333.500 60.248 C 333.500 60.214,333.804 59.526,334.176 58.718 C 334.548 57.911,334.918 57.100,334.998 56.917 C 335.078 56.733,335.420 55.946,335.758 55.167 C 336.096 54.387,336.844 52.700,337.419 51.417 C 339.426 46.943,339.395 47.032,339.394 45.650 C 339.391 42.754,337.383 40.909,334.250 40.923 C 331.439 40.936,330.465 41.853,328.594 46.250 C 328.438 46.617,328.247 47.067,328.169 47.250 C 328.091 47.433,327.721 48.265,327.347 49.099 C 326.973 49.932,326.667 50.661,326.667 50.719 C 326.667 50.777,326.484 51.220,326.261 51.704 C 326.038 52.188,325.398 53.671,324.838 55.000 C 324.278 56.329,323.716 57.642,323.589 57.917 C 323.164 58.835,322.667 59.996,322.667 60.070 C 322.667 60.110,322.442 60.630,322.167 61.224 C 321.892 61.818,321.667 62.361,321.667 62.430 C 321.667 62.500,321.453 63.013,321.191 63.570 C 320.929 64.127,320.511 65.071,320.263 65.667 C 320.014 66.262,319.744 66.900,319.664 67.083 C 319.584 67.267,319.374 67.754,319.197 68.167 C 319.021 68.579,318.549 69.667,318.149 70.583 C 317.749 71.500,317.416 72.287,317.409 72.333 C 317.402 72.379,317.280 72.679,317.138 73.000 C 316.995 73.321,316.673 74.071,316.422 74.667 C 316.171 75.262,315.833 76.050,315.671 76.417 C 315.509 76.783,315.098 77.721,314.758 78.500 C 314.417 79.279,314.038 80.138,313.915 80.408 L 313.692 80.900 313.250 79.908 C 313.007 79.363,312.622 78.467,312.394 77.917 C 311.972 76.899,311.825 76.561,311.161 75.083 C 310.955 74.625,310.581 73.762,310.330 73.167 C 309.939 72.238,309.309 70.779,308.422 68.750 C 308.301 68.475,307.627 66.900,306.923 65.250 C 306.219 63.600,305.539 62.025,305.413 61.750 C 304.591 59.955,304.167 58.986,304.167 58.900 C 304.167 58.845,304.060 58.564,303.930 58.275 C 303.800 57.986,303.456 57.225,303.165 56.583 C 302.875 55.942,302.449 54.967,302.218 54.417 C 301.988 53.867,301.620 53.021,301.400 52.538 C 301.181 52.054,300.805 51.192,300.567 50.621 C 300.180 49.697,299.780 48.764,299.336 47.750 C 299.256 47.567,298.869 46.667,298.476 45.750 C 297.489 43.446,297.081 42.762,296.291 42.086 C 294.781 40.793,292.006 40.407,290.214 41.241 M26.333 43.750 C 26.818 44.027,27.202 44.079,26.833 43.818 C 26.473 43.562,27.614 43.734,29.167 44.170 C 30.743 44.613,33.406 44.656,35.056 44.267 C 35.683 44.119,36.276 44.048,36.373 44.108 C 36.472 44.169,36.503 44.140,36.444 44.043 C 36.380 43.941,36.490 43.873,36.709 43.878 C 36.915 43.883,37.215 43.829,37.375 43.759 C 37.594 43.663,37.667 43.708,37.669 43.941 C 37.671 44.201,37.697 44.210,37.830 44.000 C 37.966 43.786,38.044 43.805,38.370 44.129 C 38.746 44.505,38.751 44.559,38.833 49.927 C 38.922 55.684,38.938 55.786,39.718 55.599 C 39.925 55.549,39.977 55.589,39.885 55.728 C 39.811 55.839,39.938 55.736,40.167 55.500 C 40.396 55.264,40.546 55.152,40.500 55.251 C 40.454 55.351,40.594 55.241,40.810 55.008 C 41.026 54.774,41.148 54.685,41.081 54.809 C 40.998 54.962,41.100 54.942,41.396 54.748 C 41.816 54.473,42.037 54.188,41.641 54.433 C 41.521 54.507,41.494 54.478,41.569 54.356 C 41.635 54.249,41.757 54.203,41.839 54.253 C 41.921 54.304,42.141 54.193,42.327 54.006 C 42.514 53.819,42.739 53.667,42.827 53.667 C 42.916 53.667,43.068 53.517,43.166 53.335 C 43.263 53.153,43.411 53.021,43.493 53.043 C 43.576 53.065,43.766 52.933,43.917 52.750 C 44.068 52.567,44.134 52.529,44.064 52.667 C 43.898 52.991,44.380 52.650,45.000 52.004 C 45.229 51.766,45.379 51.652,45.333 51.751 C 45.288 51.851,45.427 51.741,45.643 51.508 C 45.860 51.274,45.983 51.196,45.917 51.333 C 45.851 51.471,45.998 51.358,46.244 51.083 C 46.490 50.808,46.641 50.696,46.581 50.833 C 46.521 50.971,46.634 50.896,46.833 50.667 C 47.033 50.438,47.141 50.354,47.074 50.481 C 47.007 50.608,47.188 50.538,47.476 50.325 C 47.764 50.112,48.000 49.876,48.000 49.802 C 48.000 49.728,48.109 49.667,48.242 49.667 C 48.375 49.667,48.550 49.547,48.632 49.402 C 48.713 49.256,48.848 49.133,48.932 49.128 C 49.015 49.124,49.249 49.011,49.452 48.878 C 51.427 47.584,53.833 53.347,53.180 57.808 C 52.592 61.832,50.990 64.270,46.929 67.324 C 43.138 70.175,41.393 72.346,39.954 76.000 C 39.037 78.327,38.950 79.180,38.846 86.833 L 38.750 93.917 38.236 94.833 C 37.167 96.739,35.729 97.237,31.552 97.143 C 27.903 97.061,26.398 96.271,25.635 94.037 C 25.325 93.130,25.220 46.468,25.524 44.708 C 25.753 43.387,25.735 43.408,26.333 43.750 M74.450 43.997 C 74.523 43.996,74.471 43.922,74.333 43.833 C 73.892 43.548,74.824 43.642,75.955 43.997 C 77.598 44.511,79.433 44.683,81.031 44.470 C 81.793 44.369,82.653 44.278,82.942 44.268 C 83.232 44.258,83.426 44.182,83.375 44.099 C 83.323 44.016,83.443 43.990,83.641 44.042 C 83.861 44.099,83.960 44.070,83.896 43.967 C 83.830 43.859,83.929 43.841,84.167 43.917 C 84.446 44.005,84.508 43.982,84.412 43.825 C 84.328 43.690,84.349 43.657,84.471 43.732 C 84.575 43.796,84.804 43.771,84.981 43.677 C 85.486 43.407,86.275 44.236,86.410 45.178 C 86.741 47.486,86.419 93.579,86.066 94.342 C 85.065 96.505,83.948 97.042,80.255 97.136 C 76.656 97.227,75.540 96.977,74.362 95.815 C 73.059 94.531,73.095 94.769,72.986 86.667 C 72.834 75.329,71.631 72.401,65.102 67.472 C 61.274 64.582,59.855 62.712,58.990 59.412 C 58.480 57.464,58.509 52.098,59.024 53.250 C 59.136 53.501,59.152 53.448,59.089 53.033 C 59.032 52.661,59.064 52.520,59.187 52.596 C 59.308 52.671,59.331 52.590,59.257 52.354 C 59.191 52.149,59.217 52.000,59.317 52.000 C 59.412 52.000,59.442 51.875,59.383 51.723 C 59.305 51.520,59.337 51.482,59.500 51.583 C 59.663 51.684,59.695 51.647,59.617 51.444 C 59.558 51.291,59.591 51.167,59.690 51.167 C 59.788 51.167,59.824 51.050,59.770 50.908 C 59.707 50.743,59.738 50.691,59.857 50.765 C 59.967 50.833,60.013 50.789,59.970 50.659 C 59.929 50.537,60.035 50.299,60.204 50.129 C 60.373 49.960,60.467 49.749,60.413 49.661 C 60.358 49.572,60.380 49.500,60.462 49.500 C 60.544 49.500,60.711 49.313,60.833 49.083 C 61.097 48.590,61.272 48.566,61.734 48.958 C 62.063 49.238,62.068 49.237,61.843 48.948 C 60.991 47.850,62.558 48.783,67.065 52.055 C 70.578 54.605,72.129 55.670,72.324 55.664 C 72.886 55.649,72.916 55.397,73.006 49.965 L 73.094 44.583 73.131 50.342 C 73.158 54.755,73.118 56.155,72.958 56.334 C 72.781 56.532,72.794 56.534,73.042 56.347 C 73.310 56.143,73.333 55.630,73.333 49.809 L 73.333 43.491 73.825 43.746 C 74.096 43.886,74.377 43.999,74.450 43.997 M31.288 44.954 C 31.584 44.990,32.109 44.991,32.455 44.955 C 32.800 44.919,32.558 44.889,31.917 44.888 C 31.275 44.887,30.992 44.917,31.288 44.954 M78.621 44.954 C 78.917 44.990,79.442 44.991,79.788 44.955 C 80.134 44.919,79.892 44.889,79.250 44.888 C 78.608 44.887,78.325 44.917,78.621 44.954 M376.400 50.432 C 378.248 50.796,381.144 51.845,381.306 52.208 C 381.336 52.277,381.440 52.333,381.537 52.333 C 381.831 52.333,384.279 54.167,384.973 54.907 C 386.996 57.066,388.500 60.422,388.500 62.780 L 388.500 63.167 373.147 63.167 L 357.794 63.167 357.897 62.792 C 357.954 62.585,358.047 62.134,358.105 61.788 C 358.163 61.442,358.276 61.119,358.355 61.070 C 358.435 61.021,358.500 60.865,358.500 60.724 C 358.500 59.906,360.264 56.666,361.487 55.239 C 364.842 51.322,370.939 49.357,376.400 50.432 M67.917 68.833 C 68.368 69.292,68.775 69.667,68.821 69.667 C 68.867 69.667,68.535 69.292,68.083 68.833 C 67.632 68.375,67.225 68.000,67.179 68.000 C 67.133 68.000,67.465 68.375,67.917 68.833 M73.242 86.417 C 73.242 89.992,73.265 91.430,73.291 89.614 C 73.318 87.797,73.318 84.872,73.291 83.114 C 73.264 81.355,73.242 82.842,73.242 86.417 " stroke="none" fill="#6b54db" fill-rule="evenodd"></path><path id="path1" d="M139.796 18.590 C 138.069 19.062,136.497 20.756,136.166 22.502 C 135.918 23.811,135.940 92.535,136.189 93.697 C 137.068 97.798,142.689 99.275,145.410 96.120 C 147.060 94.207,146.903 96.041,147.003 77.500 C 147.082 62.720,147.116 61.160,147.380 60.250 C 148.982 54.722,153.486 51.054,159.353 50.498 C 165.768 49.891,170.049 52.298,171.548 57.358 C 171.775 58.123,172.060 59.050,172.180 59.417 C 172.353 59.942,172.419 63.667,172.491 77.000 L 172.583 93.917 173.034 94.772 C 175.109 98.706,180.723 98.813,182.857 94.960 L 183.250 94.250 183.295 77.250 C 183.322 67.215,183.275 59.704,183.181 58.917 C 182.775 55.503,182.146 52.742,181.283 50.583 C 180.953 49.758,179.684 47.328,179.460 47.091 C 179.344 46.970,179.100 46.656,178.917 46.394 C 175.818 41.966,168.544 39.435,161.917 40.478 C 160.105 40.764,158.932 41.017,158.750 41.162 C 158.658 41.235,158.321 41.350,158.000 41.419 C 155.138 42.025,149.432 46.176,147.551 49.020 L 147.083 49.726 147.000 36.071 C 146.923 23.478,146.894 22.378,146.626 21.917 C 146.466 21.642,146.335 21.336,146.334 21.238 C 146.333 20.931,145.148 19.659,144.458 19.223 C 143.096 18.364,141.444 18.139,139.796 18.590 M200.250 22.599 C 197.504 23.339,196.917 24.306,196.917 28.083 C 196.917 30.843,197.058 31.497,197.876 32.524 C 199.404 34.443,206.078 34.494,207.927 32.602 C 209.419 31.075,209.383 25.259,207.873 23.679 C 206.748 22.502,202.724 21.932,200.250 22.599 M201.583 40.978 C 199.888 41.424,198.438 42.712,197.867 44.277 L 197.500 45.284 197.500 69.276 C 197.500 93.032,197.503 93.279,197.842 94.281 C 199.305 98.615,205.642 99.026,207.805 94.927 L 208.250 94.083 208.250 69.333 L 208.250 44.583 207.806 43.750 C 206.654 41.587,203.909 40.364,201.583 40.978 " stroke="none" fill="#1c1c1c" fill-rule="evenodd"></path><path id="path2" d="M30.583 20.833 C 22.225 21.990,18.743 32.448,24.732 38.410 C 30.241 43.893,39.566 41.645,41.936 34.263 C 44.242 27.079,38.085 19.794,30.583 20.833 M77.995 20.838 C 69.814 22.088,66.258 32.097,71.866 38.091 C 78.313 44.984,89.848 40.494,89.831 31.098 C 89.819 24.835,84.127 19.901,77.995 20.838 M25.667 67.891 C 25.667 95.169,25.600 93.615,26.831 94.847 C 27.872 95.888,28.344 95.998,31.750 95.998 C 37.561 95.998,37.658 95.851,37.663 86.996 C 37.665 83.556,37.744 80.125,37.838 79.372 C 38.473 74.313,41.167 69.875,45.500 66.750 C 47.683 65.176,48.789 64.217,49.574 63.217 C 52.554 59.420,52.963 53.995,50.591 49.752 C 49.844 48.417,50.194 48.317,46.709 50.858 C 38.016 57.194,38.662 56.765,38.186 56.510 C 37.679 56.239,37.667 56.080,37.667 49.719 C 37.667 43.987,37.650 43.638,37.375 43.750 C 33.404 45.370,29.853 45.321,25.958 43.594 C 25.681 43.471,25.667 44.689,25.667 67.891 M73.333 49.846 L 73.333 56.159 72.928 56.425 C 72.395 56.774,72.734 56.983,66.553 52.486 C 60.526 48.100,61.187 48.426,60.568 49.542 C 57.199 55.624,58.713 61.643,64.747 66.153 C 69.155 69.447,71.262 72.177,72.497 76.195 C 73.164 78.365,73.204 78.868,73.311 86.278 L 73.417 93.639 73.918 94.361 C 74.872 95.737,75.713 96.000,79.155 95.999 C 82.658 95.998,83.162 95.884,84.190 94.856 C 85.403 93.642,85.331 95.324,85.332 68.134 L 85.333 43.519 84.589 43.848 C 81.501 45.214,77.490 45.279,74.474 44.012 L 73.333 43.532 73.333 49.846 " stroke="none" fill="#fbfbfb" fill-rule="evenodd"></path><path id="path3" d="M41.507 26.553 C 41.503 26.627,41.582 26.842,41.682 27.029 C 45.475 34.116,37.608 43.347,29.562 41.251 C 28.294 40.921,28.204 41.067,29.440 41.448 C 37.045 43.797,44.486 36.683,42.510 28.954 C 42.227 27.849,41.528 26.174,41.507 26.553 M89.173 27.023 C 89.169 27.081,89.276 27.381,89.410 27.689 C 89.544 27.998,89.654 28.137,89.654 28.000 C 89.655 27.760,89.185 26.806,89.173 27.023 M89.756 28.879 C 90.946 36.892,84.222 43.250,76.749 41.178 C 75.534 40.841,75.163 40.824,75.953 41.141 C 81.502 43.367,87.805 40.443,89.773 34.732 C 90.333 33.107,90.419 30.078,89.939 28.917 L 89.663 28.250 89.756 28.879 M85.333 68.972 C 85.333 95.244,85.391 93.649,84.407 94.815 C 83.518 95.870,82.993 95.991,79.250 96.007 C 76.621 96.018,76.005 96.061,76.333 96.210 C 76.974 96.501,82.430 96.478,83.167 96.182 C 84.199 95.766,84.858 95.152,85.312 94.184 L 85.750 93.250 85.750 69.217 C 85.750 50.212,85.706 45.140,85.542 44.975 C 85.375 44.808,85.333 49.608,85.333 68.972 M37.773 45.250 C 37.715 45.402,37.667 47.829,37.667 50.643 C 37.667 56.164,37.718 56.503,38.551 56.497 C 38.780 56.496,38.843 56.448,38.719 56.369 C 38.247 56.069,38.167 55.199,38.164 50.364 C 38.162 45.795,38.062 44.496,37.773 45.250 M51.564 51.583 C 51.608 51.767,51.769 52.378,51.923 52.941 C 53.119 57.346,50.891 63.125,46.987 65.744 C 43.433 68.128,41.298 70.391,39.759 73.409 C 38.043 76.771,37.814 78.251,37.686 86.833 C 37.572 94.509,37.580 94.456,36.372 95.274 C 35.378 95.947,35.038 96.000,31.689 96.005 C 29.046 96.009,28.481 96.049,28.750 96.213 C 29.388 96.601,34.935 96.486,35.833 96.066 C 38.037 95.036,38.066 94.918,38.179 86.417 C 38.329 75.202,39.716 71.834,46.151 67.051 C 51.677 62.945,53.664 58.354,52.189 53.098 C 51.855 51.906,51.345 50.670,51.564 51.583 " stroke="none" fill="#5445b3" fill-rule="evenodd"></path><path id="path4" d="M31.083 20.525 C 30.442 20.605,29.729 20.745,29.500 20.836 L 29.083 21.002 29.514 20.921 C 33.988 20.084,38.634 21.876,40.631 25.208 C 40.782 25.460,40.964 25.667,41.036 25.667 C 41.108 25.667,41.167 25.768,41.167 25.891 C 41.167 26.015,41.319 26.292,41.506 26.506 C 41.692 26.721,41.805 26.999,41.757 27.124 C 41.703 27.265,41.743 27.306,41.864 27.231 C 41.994 27.151,42.021 27.205,41.947 27.398 C 41.887 27.555,41.902 27.644,41.981 27.595 C 42.226 27.444,42.718 29.511,42.797 31.028 C 43.156 37.881,36.882 43.101,30.100 41.592 C 29.401 41.437,28.871 41.241,28.923 41.157 C 28.975 41.073,28.901 41.048,28.759 41.103 C 28.616 41.158,28.500 41.122,28.500 41.023 C 28.500 40.924,28.375 40.892,28.223 40.950 C 28.020 41.028,27.982 40.997,28.083 40.833 C 28.184 40.671,28.147 40.639,27.949 40.715 C 27.799 40.772,27.580 40.725,27.463 40.610 C 27.346 40.495,26.823 40.119,26.302 39.774 C 23.333 37.812,21.690 34.708,21.647 30.976 L 21.626 29.250 21.462 30.250 C 19.902 39.757,32.034 46.334,39.538 40.049 C 47.951 33.003,41.960 19.166,31.083 20.525 M78.583 20.522 C 77.942 20.604,77.229 20.741,77.000 20.826 C 76.697 20.940,76.787 20.951,77.333 20.866 C 80.775 20.333,84.178 21.253,86.395 23.316 C 87.305 24.163,89.013 26.344,88.905 26.520 C 88.855 26.601,88.898 26.667,89.000 26.667 C 89.102 26.667,89.140 26.742,89.083 26.833 C 89.027 26.925,89.068 27.000,89.175 27.000 C 89.282 27.000,89.324 27.116,89.270 27.259 C 89.215 27.401,89.239 27.475,89.323 27.423 C 89.510 27.308,89.729 27.931,89.584 28.165 C 89.527 28.258,89.550 28.333,89.635 28.333 C 89.959 28.333,90.250 29.947,90.235 31.667 C 90.193 36.422,87.007 40.428,82.337 41.601 C 80.506 42.061,75.553 41.588,75.924 40.989 C 75.975 40.905,75.901 40.882,75.759 40.936 C 75.616 40.991,75.500 40.948,75.500 40.841 C 75.500 40.734,75.431 40.690,75.347 40.742 C 75.262 40.794,75.084 40.727,74.950 40.593 C 74.816 40.459,74.660 40.396,74.603 40.452 C 74.546 40.509,74.500 40.468,74.500 40.361 C 74.500 40.254,74.423 40.167,74.330 40.167 C 74.039 40.167,72.072 38.539,71.462 37.793 C 69.803 35.765,69.107 33.739,69.100 30.917 C 69.097 29.569,69.056 29.134,68.974 29.583 C 66.911 40.918,81.974 47.370,88.829 38.088 C 93.719 31.467,89.565 21.472,81.555 20.587 C 81.021 20.528,80.396 20.455,80.167 20.426 C 79.938 20.396,79.225 20.440,78.583 20.522 M26.902 43.846 C 28.789 45.033,34.761 45.113,36.497 43.974 C 36.695 43.844,36.678 43.831,36.417 43.916 C 34.182 44.635,31.196 44.740,29.167 44.170 C 27.552 43.717,26.445 43.559,26.902 43.846 M74.417 43.880 C 75.974 45.020,82.279 45.088,83.979 43.984 C 84.217 43.829,84.213 43.820,83.948 43.903 C 81.583 44.644,78.700 44.745,76.583 44.159 C 74.738 43.649,73.964 43.549,74.417 43.880 M85.333 44.196 C 85.333 44.510,85.427 44.860,85.542 44.975 C 85.706 45.140,85.750 50.212,85.750 69.217 L 85.750 93.250 85.353 94.129 C 84.920 95.086,84.295 95.703,83.355 96.102 C 82.136 96.619,76.379 96.569,76.014 96.039 C 75.960 95.961,75.681 95.803,75.394 95.687 C 75.107 95.570,74.627 95.237,74.328 94.946 C 73.247 93.893,73.261 94.004,73.147 85.750 C 73.061 79.509,72.997 78.096,72.771 77.333 C 71.290 72.353,69.471 69.787,65.083 66.489 C 60.298 62.892,58.917 60.438,58.917 55.533 C 58.917 53.903,58.868 53.181,58.783 53.533 C 58.495 54.716,58.607 58.014,58.982 59.412 C 59.874 62.736,61.279 64.587,65.102 67.472 C 71.631 72.401,72.834 75.329,72.986 86.667 C 73.095 94.769,73.059 94.531,74.362 95.815 C 75.540 96.977,76.656 97.227,80.255 97.136 C 83.948 97.042,85.065 96.505,86.066 94.342 L 86.417 93.583 86.462 69.481 C 86.510 43.767,86.529 44.413,85.708 43.873 C 85.344 43.633,85.333 43.643,85.333 44.196 M37.768 44.097 C 37.608 44.513,37.647 45.456,37.813 45.194 C 38.107 44.730,38.167 45.609,38.167 50.405 C 38.167 56.439,38.309 57.027,39.522 55.997 C 39.934 55.647,39.994 55.540,39.750 55.595 C 38.933 55.781,38.922 55.718,38.833 49.940 C 38.756 44.924,38.727 44.509,38.433 44.184 C 38.053 43.765,37.903 43.745,37.768 44.097 M25.450 45.167 C 25.213 46.505,25.390 93.320,25.635 94.037 C 26.398 96.271,27.903 97.061,31.552 97.143 C 35.729 97.237,37.167 96.739,38.236 94.833 L 38.750 93.917 38.846 86.833 C 38.950 79.180,39.037 78.327,39.954 76.000 C 41.393 72.346,43.138 70.175,46.929 67.324 C 50.990 64.270,52.592 61.832,53.180 57.808 C 53.692 54.311,52.256 49.470,50.528 48.868 L 50.027 48.693 50.380 49.305 C 50.574 49.641,50.907 50.151,51.119 50.437 C 51.368 50.770,51.465 51.063,51.391 51.256 C 51.315 51.455,51.339 51.516,51.464 51.439 C 52.024 51.093,52.777 55.405,52.508 57.425 C 51.951 61.616,50.491 63.826,46.151 67.051 C 39.716 71.834,38.329 75.202,38.179 86.417 C 38.066 94.895,38.023 95.072,35.871 96.034 C 34.544 96.627,29.168 96.645,28.581 96.057 C 28.446 95.923,28.260 95.859,28.168 95.916 C 28.076 95.973,28.000 95.940,28.000 95.843 C 28.000 95.746,27.887 95.667,27.750 95.667 C 27.427 95.667,26.213 94.453,25.952 93.868 C 25.798 93.524,25.730 87.573,25.667 68.917 C 25.621 55.442,25.524 44.754,25.450 45.167 M73.037 49.667 C 72.977 56.999,73.473 56.707,67.938 52.675 C 63.569 49.491,62.694 48.904,62.111 48.766 C 61.236 48.558,61.252 48.570,69.377 54.471 C 73.452 57.431,73.185 57.727,73.125 50.314 L 73.079 44.583 73.037 49.667 " stroke="none" fill="#5d4cc3" fill-rule="evenodd"></path></g></svg>